<svg width="54" height="60" viewBox="0 0 54 60" fill="none" xmlns="http://www.w3.org/2000/svg">
    <path d="M34.5894 36.431L23.6779 34.3578L32.7618 4.65125L37.1264 5.46961L34.5894 36.431Z" fill="#020202"/>
    <path d="M33.7711 38.4497L24.4963 32.3393L50.002 0L53.7392 2.42781L33.7711 38.4497Z" fill="#020202"/>
    <path d="M28.7245 40.9321L29.5429 29.8569L49.1017 34.6034L48.7744 39.0499L28.7245 40.9321Z" fill="#020202"/>
    <path d="M24.5781 38.586L33.6892 32.2028L49.0472 57.4358L45.3919 60L24.5781 38.586Z" fill="#020202"/>
    <path d="M34.0167 32.7489L24.2236 38.0137L10.5569 5.28974L14.4578 3.18927L34.0167 32.7489Z" fill="#020202"/>
    <path d="M30.4158 29.9932L27.8516 40.7956L0 30.8116L1.00931 26.4743L30.4158 29.9932Z" fill="#020202"/>
</svg>
